<?xml version="1.0" encoding="UTF-8" standalone="no"?><!DOCTYPE svg PUBLIC "-//W3C//DTD SVG 1.1//EN" "http://www.w3.org/Graphics/SVG/1.1/DTD/svg11.dtd"><svg width="100%" height="100%" viewBox="0 0 9375 9375" version="1.1" xmlns="http://www.w3.org/2000/svg" xmlns:xlink="http://www.w3.org/1999/xlink" xml:space="preserve" xmlns:serif="http://www.serif.com/" style="fill-rule:evenodd;clip-rule:evenodd;stroke-linejoin:round;stroke-miterlimit:2;"><g><path d="M6553.38,1279.55l-3675.19,830.375l12.405,23.067l-10.659,-6.954l-1682.59,2565.18l361.125,236.871l60.762,-92.763l0,1898.61l3464.36,1361.52l2859.7,-1419.32l-0,-2362.55l234.387,-93.004l-1624.31,-2941.04Zm-1670.42,6273.21l-1251.01,-491.692l-0,-1426.02l-857.167,-253.975l-0,1343.03l-723.733,-284.479l-0,-2262.57l1066.25,-1625.55l1639.18,3025.88l52.571,-20.708l73.908,-29.271l0,2025.35Zm2628.55,-1144.38l-2247.59,1115.61l0,-2147.75l2247.59,-891.396l-0,1923.53Z" style="fill:#fff;fill-rule:nonzero;"/></g></svg>